<?xml version="1.0" encoding="UTF-8"?>
<svg width="110px" height="147px" viewBox="0 0 110 147" version="1.1" xmlns="http://www.w3.org/2000/svg" xmlns:xlink="http://www.w3.org/1999/xlink">
    <title>bookmarks</title>
    <g id="Page-1" stroke="none" stroke-width="1" fill="none" fill-rule="evenodd">
        <g id="Artboard-Copy" transform="translate(-41.000000, -22.000000)" fill="#000000" fill-rule="nonzero">
            <g id="bookmarks" transform="translate(40.999942, 22.000000)">
                <path d="M109.187602,139.160156 C109.192927,141.825322 107.750117,144.283029 105.420338,145.57735 C103.09056,146.871672 100.241588,146.798288 97.9815328,145.385742 L58.4756734,118.139649 C56.1006432,116.655251 53.0870317,116.655251 50.7120015,118.139649 L11.2061421,145.385742 C8.94608695,146.798288 6.09711478,146.871672 3.76733641,145.57735 C1.43755804,144.283029 -0.00525253354,141.825322 1.43708477e-05,139.160156 L1.43708477e-05,14.6484376 C1.43708477e-05,10.7634304 1.54340046,7.03754294 4.29051541,4.29042799 C7.03763036,1.54331304 10.7635178,0 14.648525,0 L94.53915,0 C98.4241572,0 102.150045,1.54331311 104.89716,4.29042805 C107.644274,7.037543 109.187602,10.7634304 109.187602,14.6484376 L109.187602,139.160156 Z" id="Shape"></path>
            </g>
        </g>
    </g>
</svg>