<?xml version="1.0" encoding="UTF-8"?>
<svg width="215px" height="163px" viewBox="0 0 215 163" version="1.1" xmlns="http://www.w3.org/2000/svg" xmlns:xlink="http://www.w3.org/1999/xlink">
    <title>planet</title>
    <g id="Page-1" stroke="none" stroke-width="1" fill="none" fill-rule="evenodd">
        <g id="Artboard" transform="translate(12.000000, -13.000000)" fill="#000000" fill-rule="nonzero">
            <g id="planet" transform="translate(95.520692, 94.590287) rotate(-15.000000) translate(-95.520692, -94.590287) translate(0.000000, 36.000000)">
                <path d="M56.7259549,102.455245 C79.7367909,122.867775 114.95972,122.059332 136.996644,100.022408 C146.825618,90.1934337 152.427748,77.7410347 153.812614,64.9188547 C140.828072,72.1365747 125.585743,79.2830833 109.079478,85.7912796 C90.9415677,92.9429673 72.9442672,98.6520432 56.7259549,102.455245 Z" id="Path"></path>
                <path d="M41.7086538,81.6980532 C59.0637577,78.3832312 79.8261287,72.1324315 100.481553,63.9879286 C116.673453,57.6040284 131.987511,50.378022 144.768,43.0919392 C146.910813,41.8704709 148.973352,40.6505564 150.949401,39.4394461 C150.489246,38.1066292 149.979632,36.7870188 149.420818,35.4829454 C146.567963,28.8281833 142.427349,22.5926616 136.994832,17.1601446 C136.150654,16.3159668 135.285242,15.5070062 134.403775,14.7249765 C111.392422,-5.68703488 76.1697514,-4.87885119 54.1325683,17.1583319 C44.3038531,26.9870471 38.7017237,39.4394461 37.3171167,52.2613671 C36.3934412,60.8131987 37.3466371,69.5286868 40.1800706,77.7410347 C40.6397072,79.0743694 41.1495803,80.3942388 41.7086538,81.6980532 Z" id="Path"></path>
                <path d="M147.926934,21.0042608 C150.595675,24.323485 150.840124,25.1485004 152.796234,28.9245128 C160.284298,27.6714526 166.970652,27.0274433 172.236923,27.06033 C173.949361,27.0714649 175.370221,27.1509626 176.539122,27.2649007 C176.124802,27.7227247 175.652477,28.2204271 175.115414,28.7574899 C169.448029,34.4248748 159.701142,41.3233091 147.669537,48.182124 C134.651332,55.6038968 119.077547,62.9539403 102.63084,69.4388311 C80.7415178,78.0699015 58.687244,84.6177172 40.5301713,87.8768648 C32.1515774,89.3803299 24.6686924,90.1558859 18.8915126,90.1201507 C17.1790747,90.1090159 15.7582147,90.0295182 14.5893134,89.9155801 C15.0033748,89.458015 15.4757,88.9603126 16.0132807,88.4227319 C19.977291,84.4587217 25.9391023,79.8921343 33.2803415,75.1585239 C32.1981885,71.0596006 31.7986282,70.0623833 31.5334632,65.817671 C22.4564805,70.0683391 14.0364546,75.1334058 7.72764999,80.1360654 C0.678765577,85.7255063 -1.28873833,92.0117822 0.776389815,95.9641397 C7.05412042,107.9771 54.5805522,100.982077 106.929932,80.3406361 C142.05446,66.4914595 170.431263,50.0149738 183.40208,37.0441564 C189.763193,30.6830438 192.417951,25.1689575 190.352564,21.2163411 C186.75937,14.3396586 171.94897,15.3516361 147.926934,21.0042608 Z" id="Path"></path>
            </g>
        </g>
    </g>
</svg>