<?xml version="1.0" encoding="UTF-8"?>
<svg width="81.9253px" height="78.8202px" viewBox="0 0 81.9253 78.8202" version="1.1" xmlns="http://www.w3.org/2000/svg" xmlns:xlink="http://www.w3.org/1999/xlink">
    <title>Combined Shape</title>
    <g id="Page-1" stroke="none" stroke-width="1" fill="none" fill-rule="evenodd">
        <path d="M70.9713,-2.84217094e-14 L20.9446,-2.84217094e-14 C14.895,-2.84217094e-14 9.9907,4.8998 9.9907,10.944 C9.9907,16.9882 14.895,21.888 20.9446,21.888 L70.9713,21.888 C77.0213,21.888 81.9253,16.9882 81.9253,10.944 C81.9253,4.8998 77.0213,-2.84217094e-14 70.9713,-2.84217094e-14 Z M44.2971,28.4541 L10.9539,28.4541 C4.9042,28.4541 0,33.3539 0,39.3981 C0,45.4423 4.9042,50.3421 10.9539,50.3421 L44.2971,50.3421 C50.3468,50.3421 55.2511,45.4423 55.2511,39.3981 C55.2511,33.3539 50.3468,28.4541 44.2971,28.4541 Z M47.5231,67.8762 C47.5231,61.8324 42.6188,56.9326 36.5691,56.9326 C30.5195,56.9326 25.6152,61.8324 25.6152,67.8762 C25.6152,73.9212 30.5195,78.8202 36.5691,78.8202 C42.6188,78.8202 47.5231,73.9212 47.5231,67.8762 Z" id="Combined-Shape" fill="#FF5C00" fill-rule="nonzero"></path>
    </g>
</svg>