<?xml version="1.0" encoding="UTF-8"?>
<svg width="512px" height="512px" viewBox="0 0 512 512" version="1.1" xmlns="http://www.w3.org/2000/svg" xmlns:xlink="http://www.w3.org/1999/xlink">
    <title>github</title>
    <g id="github" stroke="none" stroke-width="1" fill="none" fill-rule="evenodd">
        <path d="M256,6 C114.56,6 0,120.56 0,262 C0,375.28 73.28,470.96 175.04,504.88 C187.84,507.12 192.64,499.44 192.64,492.72 C192.64,486.64 192.32,466.48 192.32,445.04 C128,456.88 111.36,429.36 106.24,414.96 C103.36,407.6 90.88,384.88 80,378.8 C71.04,374 58.24,362.16 79.68,361.84 C99.84,361.52 114.24,380.4 119.04,388.08 C142.08,426.8 178.88,415.92 193.6,409.2 C195.84,392.56 202.56,381.36 209.92,374.96 C152.96,368.56 93.44,346.48 93.44,248.56 C93.44,220.72 103.36,197.68 119.68,179.76 C117.12,173.36 108.16,147.12 122.24,111.92 C122.24,111.92 143.68,105.2 192.64,138.16 C213.12,132.4 234.88,129.52 256.64,129.52 C278.4,129.52 300.16,132.4 320.64,138.16 C369.6,104.88 391.04,111.92 391.04,111.92 C405.12,147.12 396.16,173.36 393.6,179.76 C409.92,197.68 419.84,220.4 419.84,248.56 C419.84,346.8 360,368.56 303.04,374.96 C312.32,382.96 320.32,398.32 320.32,422.32 C320.32,456.56 320,484.08 320,492.72 C320,499.44 324.8,507.44 337.6,504.88 C438.72,470.96 512,374.96 512,262 C512,120.56 397.44,6 256,6 Z" id="路径" fill="#1B1F23"></path>
    </g>
</svg>