<?xml version="1.0" encoding="UTF-8"?>
<svg width="512px" height="512px" viewBox="0 0 512 512" version="1.1" xmlns="http://www.w3.org/2000/svg" xmlns:xlink="http://www.w3.org/1999/xlink">
    <title>instagram</title>
    <g id="instagram" stroke="none" stroke-width="1" fill="none" fill-rule="evenodd">
        <path d="M256,46.144 C324.352,46.144 332.458667,46.4 359.466667,47.6373333 C428.842667,50.7946667 461.248,83.712 464.405333,152.576 C465.642667,179.562667 465.877333,187.669333 465.877333,256.021333 C465.877333,324.394667 465.621333,332.48 464.405333,359.466667 C461.226667,428.266667 428.906667,461.248 359.466667,464.405333 C332.458667,465.642667 324.394667,465.898667 256,465.898667 C187.648,465.898667 179.541333,465.642667 152.554667,464.405333 C83.008,461.226667 50.7733333,428.16 47.616,359.445333 C46.3786667,332.458667 46.1226667,324.373333 46.1226667,256 C46.1226667,187.648 46.4,179.562667 47.616,152.554667 C50.7946667,83.712 83.1146667,50.7733333 152.554667,47.616 C179.562667,46.4 187.648,46.144 256,46.144 L256,46.144 Z M256,0 C186.474667,0 177.770667,0.298666667 150.464,1.536 C57.4933333,5.80266667 5.824,57.3866667 1.55733333,150.442667 C0.298666667,177.770667 0,186.474667 0,256 C0,325.525333 0.298666667,334.250667 1.536,361.557333 C5.80266667,454.528 57.3866667,506.197333 150.442667,510.464 C177.770667,511.701333 186.474667,512 256,512 C325.525333,512 334.250667,511.701333 361.557333,510.464 C454.442667,506.197333 506.24,454.613333 510.442667,361.557333 C511.701333,334.250667 512,325.525333 512,256 C512,186.474667 511.701333,177.770667 510.464,150.464 C506.282667,57.5786667 454.634667,5.824 361.578667,1.55733333 C334.250667,0.298666667 325.525333,0 256,0 Z M256,124.544 C183.402667,124.544 124.544,183.402667 124.544,256 C124.544,328.597333 183.402667,387.477333 256,387.477333 C328.597333,387.477333 387.456,328.618667 387.456,256 C387.456,183.402667 328.597333,124.544 256,124.544 Z M256,341.333333 C208.874667,341.333333 170.666667,303.146667 170.666667,256 C170.666667,208.874667 208.874667,170.666667 256,170.666667 C303.125333,170.666667 341.333333,208.874667 341.333333,256 C341.333333,303.146667 303.125333,341.333333 256,341.333333 Z M392.661333,88.64 C375.68,88.64 361.92,102.4 361.92,119.36 C361.92,136.32 375.68,150.08 392.661333,150.08 C409.621333,150.08 423.36,136.32 423.36,119.36 C423.36,102.4 409.621333,88.64 392.661333,88.64 Z" id="形状" fill="#000000" fill-rule="nonzero"></path>
    </g>
</svg>