<?xml version="1.0" encoding="UTF-8"?>
<svg width="512px" height="512px" viewBox="0 0 512 512" version="1.1" xmlns="http://www.w3.org/2000/svg" xmlns:xlink="http://www.w3.org/1999/xlink">
    <title>Artboard</title>
    <g id="Artboard" stroke="none" stroke-width="1" fill="none" fill-rule="evenodd">
        <g id="notion" transform="translate(11.000000, 0.000000)" fill="#000000">
            <path d="M84.6716579,89.7691847 C100.590395,102.707598 106.559921,101.725261 136.459237,99.7218107 L418.293237,82.789421 C424.275684,82.789421 419.301079,76.8307709 417.311237,75.8355083 L370.511184,41.9836545 C361.543974,35.0168163 349.592,27.04179 326.695895,29.0323152 L53.8032632,48.9375672 C43.8540526,49.9199043 41.8642105,54.8962173 45.8309737,58.8901932 L84.6716579,89.7691847 Z M101.585316,155.469442 L101.585316,452.109398 C101.585316,468.046525 109.544684,474.0181 127.479105,473.035763 L437.209658,455.108111 C455.144079,454.125774 457.146842,443.152034 457.146842,430.200695 L457.146842,135.551264 C457.146842,122.625776 452.172237,115.646012 441.202263,116.641275 L117.529895,135.551264 C105.577921,136.546527 101.585316,142.531028 101.585316,155.469442 L101.585316,155.469442 Z M407.349105,171.380718 C409.338947,180.351007 407.349105,189.30837 398.368974,190.316558 L383.445158,193.28942 L383.445158,412.285968 C370.485342,419.252807 358.533368,423.233857 348.584158,423.233857 C332.639579,423.233857 328.646974,418.257544 316.707921,403.328605 L219.089368,250.032314 L219.089368,398.352292 L249.983605,405.31913 C249.983605,405.31913 249.983605,423.233857 225.058895,423.233857 L156.357658,427.214907 C154.367816,423.233857 156.357658,413.281231 163.322105,411.290706 L181.256526,406.314393 L181.256526,210.22181 L156.357658,208.231285 C154.354895,199.260996 159.3295,186.335508 173.284237,185.32732 L246.985921,180.351007 L348.571237,335.650748 L348.571237,198.265733 L322.664526,195.292871 C320.674684,184.332057 328.634053,176.369956 338.596184,175.387619 L407.349105,171.380718 Z M30.8683947,22.0784025 L314.718079,1.16496248 C349.579079,-1.82082532 358.546289,0.182625369 380.447474,16.0939014 L471.062816,79.8036332 C486.012474,90.7644473 491,93.7502351 491,105.680461 L491,455.08226 C491,476.978037 483.027711,489.929377 455.144079,491.906976 L125.502184,511.825154 C104.570079,512.820416 94.6079474,509.834628 83.6508947,495.900952 L16.9265789,409.300181 C4.97460526,393.363054 0,381.432828 0,367.486226 L0,56.899668 C0,38.9978667 7.97228947,24.0560022 30.8683947,22.0784025 Z" id="Shape"></path>
        </g>
    </g>
</svg>