<?xml version="1.0" encoding="UTF-8"?>
<svg width="512px" height="512px" viewBox="0 0 512 512" version="1.1" xmlns="http://www.w3.org/2000/svg" xmlns:xlink="http://www.w3.org/1999/xlink">
    <title>twitter</title>
    <g id="twitter" stroke="none" stroke-width="1" fill="none" fill-rule="evenodd">
        <path d="M512,96.3669504 C493.125875,104.748 472.841,110.392381 451.5515,112.936628 C473.289875,99.9160685 489.98375,79.2841468 497.828375,54.6968827 C477.50075,66.7553322 454.9715,75.5212264 430.98875,80.2462572 C411.815375,59.7853774 384.434,47 354.167,47 C286.215875,47 236.283875,110.413761 251.631125,176.243489 C164.186,171.860541 86.6375,129.955291 34.717625,66.263587 C7.143875,113.578035 20.41775,175.4738 67.27175,206.817217 C50.0435,206.261331 33.7985,201.5363 19.626875,193.646995 C18.472625,242.415299 53.42075,288.04071 104.03675,298.196319 C89.223875,302.215802 73.00025,303.156532 56.49875,299.992258 C69.8795,341.811987 108.73925,372.236054 154.82375,373.091263 C110.5775,407.791376 54.8315,423.292043 -1,416.706932 C45.576125,446.575113 100.916,464 160.3385,464 C355.74875,464 466.150625,298.923247 459.481625,150.865156 C480.044375,136.005896 497.8925,117.469237 512,96.3669504 Z" id="路径" fill="#000000" fill-rule="nonzero"></path>
    </g>
</svg>