<?xml version="1.0" encoding="UTF-8"?>
<svg width="512px" height="512px" viewBox="0 0 512 512" version="1.1" xmlns="http://www.w3.org/2000/svg" xmlns:xlink="http://www.w3.org/1999/xlink">
    <title>weibo</title>
    <g id="weibo" stroke="none" stroke-width="1" fill="none" fill-rule="evenodd">
        <g id="weibo-website-logo" transform="translate(1.000000, 49.000000)" fill="#000000" fill-rule="nonzero">
            <path d="M412.535899,212.581411 C403.813323,207.063613 394.032708,202.594018 383.214998,199.171624 C380.935381,198.407207 379.318907,197.839639 378.369565,197.45793 C377.421221,197.07722 376.277423,196.365762 374.954128,195.318559 C373.622856,194.270357 373.192062,193.080264 373.673714,191.750277 C374.151376,190.419291 374.574192,188.518738 374.954128,186.046621 C383.48923,164.175279 383.48923,147.248172 374.954128,135.266298 C366.216594,123.665134 351.704228,117.862554 331.388113,117.862554 C311.079976,117.862554 287.734344,123.475279 261.355205,134.694733 L259.642002,135.266298 C258.510172,135.647008 257.226765,135.975758 255.805744,136.263538 C254.37874,136.551319 253.001596,136.596285 251.674312,136.407429 C250.35002,136.219572 249.399681,135.554079 248.829278,134.411949 C248.258875,133.269819 248.356602,131.368267 249.115477,128.705295 C257.652573,101.126301 255.757878,81.253437 243.418428,69.0787099 C229.374751,55.0054289 205.98225,54.3399357 173.237934,67.0832298 C140.502593,79.8295215 108.094336,102.270429 76.0141604,134.415946 C51.7201835,158.759404 32.9756681,183.294717 19.7846031,208.019885 C6.59254089,232.74905 0,256.04031 0,277.917647 C0,298.456004 6.16872756,317.427555 18.5031911,334.833297 C30.8436378,352.23904 47.116075,366.597105 67.3324691,377.912486 C87.5438771,389.223871 110.369964,398.07413 135.802752,404.445277 C161.236538,410.812428 187.336458,414 214.098524,414 C240.861588,414 266.531711,411.055243 291.108895,405.159733 C315.686079,399.261226 337.138014,391.372234 355.449741,381.479769 C373.769446,371.593299 389.76067,360.41881 403.424412,347.957302 C417.095134,335.49979 427.435181,322.478707 434.461508,308.872071 C441.484842,295.276426 445,282.007532 445,269.079379 C445,256.908649 441.779019,245.823092 435.318109,235.840695 C428.869166,225.845308 421.272437,218.09621 412.535899,212.581411 Z M319.587156,343.402771 C291.781013,365.938606 256.713203,379.394357 214.388712,383.768026 C186.676306,386.431997 160.624252,384.434519 136.236538,377.777589 C111.847826,371.115663 92.0582369,360.754554 76.8757479,346.680274 C61.6912645,332.600998 53.2449142,316.433312 51.5366972,298.17322 C48.877144,270.406368 61.453929,245.255525 89.2600718,222.717691 C117.066215,200.17486 152.134025,186.720108 194.459513,182.346439 C222.171919,179.68047 248.221978,181.680946 272.605704,188.337876 C296.992421,194.993806 316.785999,205.358912 331.97148,219.432193 C347.157958,233.51047 355.600319,249.678156 357.306542,267.93525 C359.961109,295.707098 347.393299,320.857942 319.587156,343.402771 Z" id="形状"></path>
            <path d="M222.033019,225.8305 C201.95537,220.726202 182.017054,222.527252 162.222049,231.218756 C142.425054,239.910261 128.0789,253.039853 119.174631,270.619449 C110.271358,288.566402 109.653324,306.285991 117.3265,323.7663 C124.999677,341.247602 138.967646,353.198669 159.237372,359.629429 C180.262474,366.428541 201.481644,365.296679 222.884931,356.220938 C244.290208,347.149167 259.252405,332.974092 267.78446,313.702662 C276.302582,294.800576 276.066714,276.802986 267.068894,259.697979 C258.066098,242.601907 243.05812,231.311092 222.033019,225.8305 Z M191.628927,317.674106 C187.460929,324.09593 181.542332,328.587633 173.866169,331.136307 C166.194983,333.690938 159.133869,333.453644 152.69676,330.42939 C146.257661,327.405135 142.185205,322.634439 140.480386,316.111343 C138.774572,309.597182 140.005664,303.128693 144.172667,296.699919 C148.148587,290.458795 153.833306,286.116022 161.219858,283.662662 C168.610391,281.205332 175.523217,281.297668 181.964307,283.944635 C188.594489,286.775281 192.860019,291.504278 194.75393,298.115739 C196.646846,304.729185 195.606837,311.245331 191.628927,317.674106 Z M218.335762,283.36679 C217.011119,285.827099 214.925129,287.57652 212.085755,288.616045 C209.244391,289.656564 206.495582,289.70025 203.845301,288.759017 C198.164562,286.109072 196.93347,281.862606 200.152025,276.003733 C201.477663,273.543424 203.513891,271.797975 206.258719,270.754478 C209.003547,269.714952 211.702594,269.670274 214.355861,270.615477 C216.818045,271.555716 218.475093,273.309109 219.32999,275.860761 C220.181902,278.406457 219.852483,280.917402 218.335762,283.36679 Z" id="形状"></path>
            <path d="M406.899476,158.795447 C409.000846,162.890312 412.229879,165.697591 416.608567,167.222286 C420.988255,168.554893 425.215989,168.17572 429.307763,166.078765 C433.399537,163.986812 436.207696,160.749337 437.731239,156.367341 C441.343157,145.706485 441.965971,134.515388 439.578686,122.807054 C437.204397,111.097721 432.018951,100.765014 424.033343,91.8149376 C416.041737,82.8638603 406.424618,76.6270195 395.20298,73.102414 C383.975343,69.5798095 372.653735,69.0575716 361.241154,71.532699 C356.667524,72.4861333 353.149578,74.9152398 350.67332,78.8180175 C348.20306,82.7197947 347.444287,86.9577251 348.399001,91.5268063 C349.158774,96.0978885 351.533062,99.620493 355.524866,102.09562 C359.524668,104.570748 363.804386,105.332095 368.375017,104.382662 C380.366424,101.906534 390.537377,105.240053 398.915867,114.379216 C407.291358,123.517378 409.568676,134.086192 405.765815,146.084657 C404.422218,150.463652 404.809102,154.701582 406.899476,158.795447 Z" id="路径"></path>
            <path d="M507.13287,107.787458 C502.291881,83.8149352 491.629552,62.7290723 475.130937,44.535844 C458.63033,26.1544203 438.909703,13.4079086 415.956105,6.29630904 C393.013466,-0.81230332 369.88452,-1.90065089 346.553327,3.02628761 C341.241092,4.16442235 337.115442,6.95847842 334.176377,11.4144303 C331.237312,15.8713779 330.336663,20.7495249 331.479411,26.0568374 C332.615186,31.3641499 335.454621,35.485532 340.012662,38.4229751 C344.557752,41.3604182 349.491395,42.261566 354.796656,41.1234313 C371.29826,37.7140058 387.70422,38.520558 404.009553,43.5410964 C420.319869,48.5636262 434.353654,57.610951 446.112902,70.6890453 C457.866173,83.5779482 465.458923,98.547955 468.872223,115.608027 C472.288513,132.663121 471.341038,148.963441 466.028803,164.504008 C464.514437,169.624121 464.985684,174.55106 467.454498,179.289803 C469.916339,184.02755 473.707234,187.247784 478.828181,188.955484 C483.950124,190.65721 488.879783,190.280819 493.619149,187.817349 C498.361505,185.35388 501.586506,181.564081 503.295148,176.445959 C510.68864,154.650131 511.966884,131.763964 507.13287,107.787458 Z" id="路径"></path>
        </g>
    </g>
</svg>