<?xml version="1.0" encoding="UTF-8"?>
<svg width="512px" height="512px" viewBox="0 0 512 512" version="1.1" xmlns="http://www.w3.org/2000/svg" xmlns:xlink="http://www.w3.org/1999/xlink">
    <title>dribbble</title>
    <g id="dribbble" stroke="none" stroke-width="1" fill="none" fill-rule="evenodd">
        <path d="M-1.13686838e-13,256 C-1.13686838e-13,209.578496 11.435008,166.741504 34.304,127.488 C57.173504,88.234496 88.235008,57.173504 127.488,34.304 C166.741504,11.434496 209.579008,0 256,0 C302.421504,0 345.259008,11.434496 384.512,34.304 C423.765504,57.173504 454.827008,88.234496 477.696,127.488 C500.565504,166.741504 512,209.578496 512,256 C512,302.421504 500.565504,345.258496 477.696,384.512 C454.827008,423.765504 423.765504,454.826496 384.512,477.696 C345.259008,500.565504 302.421504,512 256,512 C209.579008,512 166.741504,500.565504 127.488,477.696 C88.235008,454.826496 57.173504,423.765504 34.304,384.512 C11.435008,345.258496 -1.13686838e-13,302.421504 -1.13686838e-13,256 Z M42.496,256 C42.496,309.248 60.416,356.181504 96.256,396.8 C112.64,364.714496 138.581504,334.165504 174.08,305.152 C209.579008,276.138496 244.224,257.877504 278.016,250.368 C272.896,238.421504 267.947008,227.669504 263.168,218.112 C204.459008,236.885504 140.971008,246.272 72.704,246.272 C59.392,246.272 49.493504,246.101504 43.008,245.76 C43.008,247.125504 42.923008,248.832 42.752,250.88 C42.581504,252.928 42.496,254.634496 42.496,256 Z M49.152,203.264 C56.661504,203.946496 67.755008,204.288 82.432,204.288 C139.435008,204.288 193.536,196.608 244.736,181.248 C218.795008,135.168 190.293504,96.768 159.232,66.048 C132.267008,79.701504 109.141504,98.645504 89.856,122.88 C70.571008,147.114496 57.003008,173.909504 49.152,203.264 Z M125.44,424.448 C164.011008,454.485504 207.531008,469.504 256,469.504 C281.259008,469.504 306.347008,464.725504 331.264,455.168 C324.437504,396.8 311.125504,340.309504 291.328,285.696 C259.925504,292.522496 228.267008,309.76 196.352,337.408 C164.437504,365.056 140.8,394.069504 125.44,424.448 Z M203.776,49.664 C233.813504,80.725504 261.632,119.466496 287.232,165.888 C333.653504,146.432 368.64,121.685504 392.192,91.648 C352.597504,58.88 307.2,42.496 256,42.496 C238.592,42.496 221.184,44.885504 203.776,49.664 Z M305.664,202.24 C310.784,213.162496 316.587008,226.986496 323.072,243.712 C348.331008,241.322496 375.808,240.128 405.504,240.128 C426.667008,240.128 447.659008,240.64 468.48,241.664 C465.749504,195.242496 449.024,153.941504 418.304,117.76 C396.117504,150.869504 358.571008,179.029504 305.664,202.24 Z M335.872,279.552 C353.28,330.069504 365.056,381.952 371.2,435.2 C398.165504,417.792 420.181504,395.434496 437.248,368.128 C454.315008,340.821504 464.555008,311.296 467.968,279.552 C443.051008,277.845504 420.352,276.992 399.872,276.992 C381.099008,276.992 359.765504,277.845504 335.872,279.552 Z" id="形状" fill="#000000" fill-rule="nonzero"></path>
    </g>
</svg>