<?xml version="1.0" encoding="UTF-8"?>
<svg width="512px" height="512px" viewBox="0 0 512 512" version="1.1" xmlns="http://www.w3.org/2000/svg" xmlns:xlink="http://www.w3.org/1999/xlink">
    <title>wechat</title>
    <g id="wechat" stroke="none" stroke-width="1" fill="none" fill-rule="evenodd">
        <path d="M458.813417,416.535401 C491.261917,392.961764 512,358.123982 512,319.38215 C512,248.426569 443.078875,190.889828 358.082542,190.889828 C273.086208,190.889828 204.165083,248.426569 204.165083,319.38215 C204.165083,390.359064 273.086208,447.895805 358.082542,447.895805 C375.648167,447.895805 392.596333,445.399773 408.330875,440.855715 L412.844708,440.173039 C415.80425,440.173039 418.487,441.090384 421.020708,442.54107 L454.725417,462.039988 L457.684958,463 C460.51675,463 462.81625,460.69597 462.81625,457.8586 L461.985875,454.103885 L455.044792,428.183551 L454.5125,424.898176 C454.5125,421.442131 456.215833,418.391425 458.813417,416.535401 L458.813417,416.535401 Z M185.705208,49 C83.6968333,49 1,118.035556 1,203.220653 C1,249.685252 25.8686667,291.520458 64.811125,319.787488 C67.941,322.006184 69.985,325.675564 69.985,329.835618 L69.34625,333.761002 L61.0212083,364.865402 L60.0205,369.366794 C60.0205,372.780171 62.7884167,375.55354 66.1737917,375.55354 L69.7507917,374.401525 L110.183667,350.998557 C113.207083,349.249201 116.422125,348.161187 119.977833,348.161187 L125.407208,348.971864 C144.271625,354.411934 164.626458,357.441307 185.705208,357.441307 L195.840042,357.185304 C191.837208,345.153149 189.644167,332.480985 189.644167,319.403483 C189.644167,241.727816 265.05925,178.751005 358.082542,178.751005 L368.110917,179.007008 C354.207458,105.342059 277.83425,49 185.705208,49 L185.705208,49 Z M306.769625,298.837885 C295.442458,298.837885 286.26575,289.621766 286.26575,278.272287 C286.26575,266.901474 295.442458,257.706689 306.769625,257.706689 C318.118083,257.706689 327.294792,266.901474 327.294792,278.272287 C327.294792,289.621766 318.118083,298.837885 306.769625,298.837885 Z M409.395458,298.837885 C398.047,298.837885 388.870292,289.621766 388.870292,278.272287 C388.870292,266.901474 398.047,257.706689 409.395458,257.706689 C420.722625,257.706689 429.899333,266.901474 429.899333,278.272287 C429.899333,289.621766 420.722625,298.837885 409.395458,298.837885 Z M124.129708,178.537669 C110.524333,178.537669 99.5165417,167.48686 99.5165417,153.876018 C99.5165417,140.243842 110.524333,129.193033 124.129708,129.193033 C137.735083,129.193033 148.764167,140.243842 148.764167,153.876018 C148.764167,167.48686 137.735083,178.537669 124.129708,178.537669 Z M247.259417,178.537669 C233.654042,178.537669 222.64625,167.48686 222.64625,153.876018 C222.64625,140.243842 233.654042,129.193033 247.259417,129.193033 C260.864792,129.193033 271.893875,140.243842 271.893875,153.876018 C271.893875,167.48686 260.864792,178.537669 247.259417,178.537669 Z" id="形状" fill="#000000"></path>
    </g>
</svg>